HIERARCHY
ROOT hip
{
  OFFSET 0 0 0
  CHANNELS 6 Xposition Yposition Zposition Zrotation Yrotation Xrotation
  JOINT abdomen
  {
    OFFSET 0 20.6881 -0.73152
    CHANNELS 3 Zrotation Xrotation Yrotation
    JOINT chest
    {
      OFFSET 0 11.7043 -0.48768
      CHANNELS 3 Zrotation Xrotation Yrotation
      JOINT neck
      {
        OFFSET 0 22.1894 -2.19456
        CHANNELS 3 Zrotation Xrotation Yrotation
        JOINT head
        {
          OFFSET -0.24384 7.07133 1.2192
          CHANNELS 3 Zrotation Xrotation Yrotation
          JOINT leftEye
          {
            OFFSET 4.14528 8.04674 8.04672
            CHANNELS 3 Zrotation Xrotation Yrotation
            End Site
            {
              OFFSET 1 0 0
            }
          }
          JOINT rightEye
          {
            OFFSET -3.6576 8.04674 8.04672
            CHANNELS 3 Zrotation Xrotation Yrotation
            End Site
            {
              OFFSET 1 0 0
            }
          }
        }
      }
      JOINT rCollar
      {
        OFFSET -2.68224 19.2634 -4.8768
        CHANNELS 3 Zrotation Xrotation Yrotation
        JOINT rShldr
        {
          OFFSET -8.77824 -1.95073 1.46304
          CHANNELS 3 Zrotation Xrotation Yrotation
          JOINT rForeArm
          {
            OFFSET -28.1742 -1.7115 0.48768
            CHANNELS 3 Zrotation Xrotation Yrotation
            JOINT rHand
            {
              OFFSET -22.5879 0.773209 7.07136
              CHANNELS 3 Zrotation Xrotation Yrotation
              JOINT rThumb1
              {
                OFFSET -1.2192 -0.487915 3.41376
                CHANNELS 3 Zrotation Xrotation Yrotation
                JOINT rThumb2
                {
                  OFFSET -3.37035 -0.52449 3.41376
                  CHANNELS 3 Zrotation Xrotation Yrotation
                  End Site
                  {
                    OFFSET -1.78271 -1.18214 1.43049
                  }
                }
              }
              JOINT rIndex1
              {
                OFFSET -7.75947 0.938293 5.60832
                CHANNELS 3 Zrotation Xrotation Yrotation
                JOINT rIndex2
                {
                  OFFSET -2.54057 -0.884171 1.56538
                  CHANNELS 3 Zrotation Xrotation Yrotation
                  End Site
                  {
                    OFFSET -1.62519 -0.234802 1.16502
                  }
                }
              }
              JOINT rMid1
              {
                OFFSET -8.24714 1.18213 3.41376
                CHANNELS 3 Zrotation Xrotation Yrotation
                JOINT rMid2
                {
                  OFFSET -3.10165 -0.590103 1.0647
                  CHANNELS 3 Zrotation Xrotation Yrotation
                  End Site
                  {
                    OFFSET -2.48547 -0.328903 0.83742
                  }
                }
              }
              JOINT rRing1
              {
                OFFSET -8.82822 0.546677 1.51678
                CHANNELS 3 Zrotation Xrotation Yrotation
                JOINT rRing2
                {
                  OFFSET -2.60934 -0.819778 -0.0198488
                  CHANNELS 3 Zrotation Xrotation Yrotation
                  End Site
                  {
                    OFFSET -2.33842 -0.294052 0.168128
                  }
                }
              }
              JOINT rPinky1
              {
                OFFSET -8.27202 -0.0477905 -0.4584
                CHANNELS 3 Zrotation Xrotation Yrotation
                JOINT rPinky2
                {
                  OFFSET -1.82734 -0.647385 -0.700984
                  CHANNELS 3 Zrotation Xrotation Yrotation
                  End Site
                  {
                    OFFSET -1.69225 -0.51767 -0.607171
                  }
                }
              }
            }
          }
        }
      }
      JOINT lCollar
      {
        OFFSET 2.68224 19.2634 -4.8768
        CHANNELS 3 Zrotation Xrotation Yrotation
        JOINT lShldr
        {
          OFFSET 8.77824 -1.95073 1.46304
          CHANNELS 3 Zrotation Xrotation Yrotation
          JOINT lForeArm
          {
            OFFSET 28.1742 -1.7115 0.48768
            CHANNELS 3 Zrotation Xrotation Yrotation
            JOINT lHand
            {
              OFFSET 22.5879 0.773209 7.07136
              CHANNELS 3 Zrotation Xrotation Yrotation
              JOINT lThumb1
              {
                OFFSET 1.2192 -0.487915 3.41376
                CHANNELS 3 Zrotation Xrotation Yrotation
                JOINT lThumb2
                {
                  OFFSET 3.37035 -0.52449 3.41376
                  CHANNELS 3 Zrotation Xrotation Yrotation
                  End Site
                  {
                    OFFSET 1.78271 -1.18214 1.43049
                  }
                }
              }
              JOINT lIndex1
              {
                OFFSET 7.75947 0.938293 5.60832
                CHANNELS 3 Zrotation Xrotation Yrotation
                JOINT lIndex2
                {
                  OFFSET 2.54057 -0.884171 1.56538
                  CHANNELS 3 Zrotation Xrotation Yrotation
                  End Site
                  {
                    OFFSET 1.62519 -0.234802 1.16502
                  }
                }
              }
              JOINT lMid1
              {
                OFFSET 8.24714 1.18213 3.41376
                CHANNELS 3 Zrotation Xrotation Yrotation
                JOINT lMid2
                {
                  OFFSET 3.10165 -0.590103 1.0647
                  CHANNELS 3 Zrotation Xrotation Yrotation
                  End Site
                  {
                    OFFSET 2.48547 -0.328903 0.83742
                  }
                }
              }
              JOINT lRing1
              {
                OFFSET 8.82822 0.546677 1.51678
                CHANNELS 3 Zrotation Xrotation Yrotation
                JOINT lRing2
                {
                  OFFSET 2.60934 -0.819778 -0.0198488
                  CHANNELS 3 Zrotation Xrotation Yrotation
                  End Site
                  {
                    OFFSET 2.33842 -0.294052 0.168128
                  }
                }
              }
              JOINT lPinky1
              {
                OFFSET 8.27202 -0.0477905 -0.4584
                CHANNELS 3 Zrotation Xrotation Yrotation
                JOINT lPinky2
                {
                  OFFSET 1.82734 -0.647385 -0.700984
                  CHANNELS 3 Zrotation Xrotation Yrotation
                  End Site
                  {
                    OFFSET 1.69225 -0.51767 -0.607171
                  }
                }
              }
            }
          }
        }
      }
    }
  }
  JOINT rButtock
  {
    OFFSET -8.77824 4.35084 1.2192
    CHANNELS 3 Zrotation Xrotation Yrotation
    JOINT rThigh
    {
      OFFSET 0 -1.70687 -2.19456
      CHANNELS 3 Zrotation Xrotation Yrotation
      JOINT rShin
      {
        OFFSET 0 -36.8199 0.73152
        CHANNELS 3 Zrotation Xrotation Yrotation
        JOINT rFoot
        {
          OFFSET 0.73152 -45.1104 -5.12064
          CHANNELS 3 Zrotation Xrotation Yrotation
          End Site
          {
            OFFSET -1.1221 -3.69964 12.103
          }
        }
      }
    }
  }
  JOINT lButtock
  {
    OFFSET 8.77824 4.35084 1.2192
    CHANNELS 3 Zrotation Xrotation Yrotation
    JOINT lThigh
    {
      OFFSET 0 -1.70687 -2.19456
      CHANNELS 3 Zrotation Xrotation Yrotation
      JOINT lShin
      {
        OFFSET 0 -36.8199 0.73152
        CHANNELS 3 Zrotation Xrotation Yrotation
        JOINT lFoot
        {
          OFFSET -0.73152 -45.1104 -5.12064
          CHANNELS 3 Zrotation Xrotation Yrotation
          End Site
          {
            OFFSET 1.1221 -3.69964 12.103
          }
        }
      }
    }
  }
}
MOTION
Frames:	8
Frame Time:	0.00833333
4.25651 81.6959 56.1782 -8.2512 -1.9114 3.0731 1.49265 -8.1358 4.54256 -2.72294 -3.22011 0.845443 0.123427 7.17873 -2.97591 6.7401 -33.9791 -4.03644 -0.0 0.0 0.0 -0.0 0.0 0.0 -1.94749e-13 -4.134e-14 7.65352e-14 104.645 71.8833 -30.0458 -25.4317 -47.2974 98.3701 -0.559068 -20.9451 -3.07961 -7.6998e-10 -1.84169e-09 1.53724e-10 -1.33919e-09 -3.17395e-09 2.57334e-10 -7.69971e-10 -1.84168e-09 1.53711e-10 7.73091 5.47488 0.417314 -7.69978e-10 -1.84169e-09 1.53722e-10 2.90554 0.965183 0.102902 -7.6997e-10 -1.84169e-09 1.53723e-10 10.2786 0.731801 0.0259123 -7.69978e-10 -1.84169e-09 1.53728e-10 2.22167 -0.733487 -0.20892 -1.94819e-13 -4.13548e-14 7.63644e-14 -108.712 70.8674 38.2356 25.8493 -46.5583 -96.7445 0.816007 -24.6648 3.70281 -7.33124e-10 -1.60511e-09 -1.00101e-09 -1.24981e-09 -2.83977e-09 -1.74303e-09 -7.33126e-10 -1.60511e-09 -1.001e-09 -7.73091 5.47488 -0.417314 -7.3312e-10 -1.60511e-09 -1.00101e-09 -2.90554 0.965183 -0.102902 -7.33129e-10 -1.60511e-09 -1.00101e-09 -10.2786 0.731801 -0.0259123 -7.33117e-10 -1.60509e-09 -1.00102e-09 -2.22167 -0.733487 0.20892 -2.03217e-16 0.0 -3.88251e-19 2.95112 -1.50108 19.3479 -0.0500665 8.1201 0.540889 -5.50125 -10.4652 -16.8592 2.03217e-16 0.0 3.88251e-19 3.46946 -2.87849 -24.2935 -0.00180981 15.5273 -0.237519 8.35292 -14.289 35.2403
4.28996 81.7615 56.1254 -8.233 -2.2788 3.1535 1.66131 -7.75815 4.09306 -2.80701 -3.33171 0.712275 0.308598 7.29819 -2.89011 7.10172 -32.9259 -3.839 -0.0 0.0 0.0 -0.0 0.0 0.0 -2.12776e-13 -7.74974e-14 1.34148e-13 104.012 72.5662 -29.9319 -25.374 -47.3935 98.5859 -0.459519 -19.0547 -2.77968 -4.35377e-10 -6.39292e-10 -1.15362e-10 -7.56017e-10 -1.10437e-09 -2.01096e-10 -4.35366e-10 -6.39282e-10 -1.15377e-10 7.73091 5.47488 0.417314 -4.35375e-10 -6.39298e-10 -1.15361e-10 2.90554 0.965183 0.102902 -4.35367e-10 -6.393e-10 -1.15362e-10 10.2786 0.731801 0.0259123 -4.35378e-10 -6.39301e-10 -1.15359e-10 2.22167 -0.733487 -0.20892 -2.1285e-13 -7.75053e-14 1.33993e-13 -108.946 70.8376 38.4657 25.8545 -46.5486 -96.7235 0.824224 -24.8291 3.72956 -4.58323e-10 -4.23299e-10 -4.45466e-10 -7.85905e-10 -7.60674e-10 -7.75706e-10 -4.58326e-10 -4.23296e-10 -4.4546e-10 -7.73091 5.47488 -0.417314 -4.58318e-10 -4.23318e-10 -4.45477e-10 -2.90554 0.965183 -0.102902 -4.58326e-10 -4.23299e-10 -4.45465e-10 -10.2786 0.731801 -0.0259123 -4.58314e-10 -4.23294e-10 -4.4548e-10 -2.22167 -0.733487 0.20892 -2.03217e-16 0.0 -3.88251e-19 2.83305 -1.54397 19.4214 -0.0501928 8.07188 0.536468 -5.39175 -10.3521 -16.6072 2.03217e-16 0.0 3.88251e-19 3.36947 -2.85835 -24.1512 -0.00188107 15.5298 -0.240295 8.44395 -14.3536 35.4268
4.34952 81.8614 56.0753 -8.1493 -2.565 3.4043 1.84144 -7.59703 3.66582 -2.90826 -3.49702 0.582769 0.380295 7.40554 -2.87984 7.51532 -31.9162 -3.77219 -0.0 0.0 0.0 -0.0 0.0 0.0 -2.33644e-13 -8.9054e-14 1.59773e-13 103.793 73.0909 -30.2088 -25.3139 -47.493 98.8094 -0.405097 -17.8008 -2.58635 -3.00515e-10 1.69027e-10 -3.75385e-10 -5.18521e-10 2.92115e-10 -6.47739e-10 -3.00504e-10 1.6904e-10 -3.75401e-10 7.73091 5.47488 0.417314 -3.00513e-10 1.69021e-10 -3.75382e-10 2.90554 0.965183 0.102902 -3.00506e-10 1.69019e-10 -3.75384e-10 10.2786 0.731801 0.0259123 -3.00518e-10 1.69017e-10 -3.75382e-10 2.22167 -0.733487 -0.20892 -2.33714e-13 -8.90573e-14 1.59624e-13 -109.686 70.828 39.3085 25.8506 -46.5559 -96.7391 0.81264 -24.7124 3.70839 -3.38945e-10 3.85095e-10 -1.16943e-10 -5.86389e-10 6.58435e-10 -2.04002e-10 -3.38949e-10 3.85097e-10 -1.16936e-10 -7.73091 5.47488 -0.417314 -3.38939e-10 3.85067e-10 -1.16955e-10 -2.90554 0.965183 -0.102902 -3.38948e-10 3.85093e-10 -1.16942e-10 -10.2786 0.731801 -0.0259123 -3.38936e-10 3.85094e-10 -1.16959e-10 -2.22167 -0.733487 0.20892 -2.03217e-16 0.0 -3.88251e-19 2.75409 -1.61449 19.5858 -0.0471331 7.83298 0.531216 -5.33574 -10.2066 -16.5398 2.03217e-16 0.0 3.88251e-19 3.26653 -2.92953 -24.3163 -0.00140097 15.4444 -0.238496 8.55951 -14.395 35.7779
4.41673 81.9531 55.9815 -8.0036 -2.6271 3.9238 2.04469 -7.73324 3.24434 -3.07189 -3.72502 0.449509 0.311963 7.47321 -2.97964 7.99049 -30.8479 -3.90588 -0.0 0.0 0.0 -0.0 0.0 0.0 -2.67066e-13 -5.55095e-14 1.36629e-13 104.239 73.4518 -31.141 -25.2407 -47.6135 99.0791 -0.396648 -17.5499 -2.54862 -5.15087e-10 3.9534e-10 -6.70857e-10 -8.85069e-10 6.97154e-10 -1.16226e-09 -5.15079e-10 3.95353e-10 -6.70872e-10 7.73091 5.47488 0.417314 -5.15086e-10 3.95336e-10 -6.70855e-10 2.90554 0.965183 0.102902 -5.15079e-10 3.95334e-10 -6.70856e-10 10.2786 0.731801 0.0259123 -5.15092e-10 3.95331e-10 -6.70853e-10 2.22167 -0.733487 -0.20892 -2.67108e-13 -5.55118e-14 1.36474e-13 -111.22 70.879 41.1207 25.8242 -46.6051 -96.8456 0.764124 -24.0588 3.59632 -4.66377e-10 6.62143e-10 -1.35928e-10 -8.07108e-10 1.13787e-09 -2.3768e-10 -4.6638e-10 6.62142e-10 -1.35924e-10 -7.73091 5.47488 -0.417314 -4.66372e-10 6.62119e-10 -1.35939e-10 -2.90554 0.965183 -0.102902 -4.66379e-10 6.62139e-10 -1.35927e-10 -10.2786 0.731801 -0.0259123 -4.66368e-10 6.62141e-10 -1.35943e-10 -2.22167 -0.733487 0.20892 -2.03217e-16 0.0 -3.88251e-19 2.74032 -1.66864 19.9021 -0.0392027 7.3005 0.524603 -5.36486 -10.0182 -16.7679 2.03217e-16 0.0 3.88251e-19 3.1573 -3.09144 -24.9008 5.72235e-05 15.2217 -0.230427 8.68563 -14.3784 36.3302
4.45371 82.0737 55.8891 -7.9773 -2.4637 4.4675 2.26132 -8.13654 2.78598 -3.29015 -4.01259 0.301708 0.160372 7.51634 -3.15173 8.52863 -29.6835 -4.16843 -0.0 0.0 0.0 -0.0 0.0 0.0 -3.10955e-13 1.01394e-14 8.43096e-14 105.333 73.6906 -32.7541 -25.1552 -47.7512 99.3903 -0.41005 -17.8317 -2.59231 -9.46385e-10 2.84253e-10 -9.99398e-10 -1.62605e-09 5.28184e-10 -1.73797e-09 -9.46382e-10 2.84264e-10 -9.9941e-10 7.73091 5.47488 0.417314 -9.46386e-10 2.84254e-10 -9.99397e-10 2.90554 0.965183 0.102902 -9.46378e-10 2.84251e-10 -9.99397e-10 10.2786 0.731801 0.0259123 -9.46391e-10 2.84248e-10 -9.99393e-10 2.22167 -0.733487 -0.20892 -3.10957e-13 1.01365e-14 8.41418e-14 -113.335 70.8995 43.6535 25.7822 -46.6817 -97.0133 0.686842 -22.9216 3.4054 -7.39861e-10 6.21176e-10 -3.67068e-10 -1.27661e-09 1.05556e-09 -6.40707e-10 -7.39863e-10 6.2117e-10 -3.67069e-10 -7.73091 5.47488 -0.417314 -7.39857e-10 6.21163e-10 -3.67075e-10 -2.90554 0.965183 -0.102902 -7.39863e-10 6.21169e-10 -3.67068e-10 -10.2786 0.731801 -0.0259123 -7.39853e-10 6.21174e-10 -3.67081e-10 -2.22167 -0.733487 0.20892 -2.03217e-16 0.0 -3.88251e-19 2.78864 -1.71296 20.327 -0.0273755 6.51954 0.516474 -5.45558 -9.7829 -17.2309 2.03217e-16 0.0 3.88251e-19 3.04973 -3.33447 -25.8411 0.00242622 14.883 -0.216959 8.82312 -14.3145 37.0529
4.44694 82.2241 55.843 -8.1763 -2.1803 4.9433 2.45251 -8.64918 2.35703 -3.46869 -4.34183 0.164049 -0.0559185 7.58545 -3.34693 9.13614 -28.6821 -4.44065 -0.0 0.0 0.0 -0.0 0.0 0.0 -3.45027e-13 7.15144e-14 2.58777e-14 106.576 73.7715 -34.4804 -25.08 -47.869 99.6605 -0.425234 -18.1763 -2.64541 -1.35713e-09 7.51556e-11 -1.26264e-09 -2.33235e-09 1.8842e-10 -2.20064e-09 -1.35713e-09 7.51648e-11 -1.26265e-09 7.73091 5.47488 0.417314 -1.35713e-09 7.5161e-11 -1.26264e-09 2.90554 0.965183 0.102902 -1.35712e-09 7.51588e-11 -1.26264e-09 10.2786 0.731801 0.0259123 -1.35714e-09 7.51553e-11 -1.26263e-09 2.22167 -0.733487 -0.20892 -3.44995e-13 7.1511e-14 2.56937e-14 -115.531 70.8155 46.2721 25.7494 -46.7406 -97.1431 0.620862 -21.8365 3.22756 -1.02935e-09 4.57535e-10 -6.40777e-10 -1.77284e-09 7.57372e-10 -1.11814e-09 -1.02935e-09 4.57526e-10 -6.40782e-10 -7.73091 5.47488 -0.417314 -1.02934e-09 4.57535e-10 -6.4078e-10 -2.90554 0.965183 -0.102902 -1.02935e-09 4.57526e-10 -6.40777e-10 -10.2786 0.731801 -0.0259123 -1.02934e-09 4.57536e-10 -6.40786e-10 -2.22167 -0.733487 0.20892 -2.03217e-16 0.0 -3.88251e-19 2.84556 -1.84036 20.7557 -0.0150213 5.68783 0.508306 -5.54739 -9.52902 -17.7243 2.03217e-16 0.0 3.88251e-19 2.92931 -3.65785 -26.9349 0.005041 14.5239 -0.201325 9.00356 -14.2667 37.8858
4.42997 82.329 55.75 -8.3584 -1.994 5.5912 2.58644 -9.11332 2.02453 -3.51237 -4.69488 0.0612638 -0.317916 7.7311 -3.5161 9.8048 -28.103 -4.60929 -0.0 0.0 0.0 -0.0 0.0 0.0 -3.48997e-13 9.22371e-14 -1.56046e-14 107.433 73.676 -35.7165 -25.0395 -47.9309 99.8048 -0.420109 -18.114 -2.63504 -1.51004e-09 7.43932e-12 -1.36222e-09 -2.59487e-09 8.10755e-11 -2.37606e-09 -1.51004e-09 7.44806e-12 -1.36223e-09 7.73091 5.47488 0.417314 -1.51005e-09 7.44667e-12 -1.36222e-09 2.90554 0.965183 0.102902 -1.51004e-09 7.44478e-12 -1.36221e-09 10.2786 0.731801 0.0259123 -1.51005e-09 7.4417e-12 -1.36221e-09 2.22167 -0.733487 -0.20892 -3.48959e-13 9.22349e-14 -1.58034e-14 -117.283 70.5886 48.3213 25.7517 -46.7376 -97.1344 0.59316 -21.3397 3.14752 -1.20478e-09 3.66566e-10 -7.87467e-10 -2.07374e-09 5.89147e-10 -1.37505e-09 -1.20478e-09 3.66555e-10 -7.87474e-10 -7.73091 5.47488 -0.417314 -1.20478e-09 3.66573e-10 -7.87467e-10 -2.90554 0.965183 -0.102902 -1.20479e-09 3.66556e-10 -7.87467e-10 -10.2786 0.731801 -0.0259123 -1.20478e-09 3.66568e-10 -7.87474e-10 -2.22167 -0.733487 0.20892 -2.03217e-16 0.0 -3.88251e-19 2.8594 -2.14316 21.0839 -0.00532683 5.00313 0.501465 -5.58368 -9.28482 -18.0442 2.03217e-16 0.0 3.88251e-19 2.78443 -4.06277 -27.9803 0.0070713 14.2397 -0.186708 9.26191 -14.2973 38.7697
4.43589 82.3886 55.5994 -8.3469 -1.968 6.3519 2.63619 -9.52126 1.77867 -3.33133 -5.11652 -0.00532321 -0.65154 7.98846 -3.62468 10.5297 -28.0616 -4.6001 -0.0 0.0 0.0 -0.0 0.0 0.0 -3.15899e-13 4.85765e-14 -3.8063e-14 107.561 73.4022 -36.1502 -25.0388 -47.93 99.8063 -0.380318 -17.3374 -2.51368 -1.29908e-09 6.12164e-11 -1.20744e-09 -2.2313e-09 1.66422e-10 -2.10543e-09 -1.29908e-09 6.12271e-11 -1.20745e-09 7.73091 5.47488 0.417314 -1.29908e-09 6.12211e-11 -1.20745e-09 2.90554 0.965183 0.102902 -1.29908e-09 6.12201e-11 -1.20744e-09 10.2786 0.731801 0.0259123 -1.29909e-09 6.12188e-11 -1.20744e-09 2.22167 -0.733487 -0.20892 -3.15901e-13 4.8579e-14 -3.8273e-14 -118.461 70.1648 49.6296 25.8 -46.651 -96.9431 0.61405 -21.7072 3.20688 -1.28344e-09 2.68608e-10 -8.0612e-10 -2.20881e-09 4.1018e-10 -1.41084e-09 -1.28344e-09 2.68599e-10 -8.06124e-10 -7.73091 5.47488 -0.417314 -1.28344e-09 2.68614e-10 -8.06121e-10 -2.90554 0.965183 -0.102902 -1.28344e-09 2.68599e-10 -8.0612e-10 -10.2786 0.731801 -0.0259123 -1.28343e-09 2.6861e-10 -8.06125e-10 -2.22167 -0.733487 0.20892 -2.03217e-16 0.0 -3.88251e-19 2.78994 -2.70845 21.279 0.00117628 4.49727 0.496056 -5.54547 -9.04143 -18.1294 2.03217e-16 0.0 3.88251e-19 2.57806 -4.60542 -28.9873 0.00815686 14.0577 -0.173432 9.6394 -14.434 39.7422
